<svg width="14" height="14" viewBox="0 0 14 14" fill="none" xmlns="http://www.w3.org/2000/svg">
<path d="M5.79651 9.04214C5.74443 8.84026 5.6392 8.65603 5.49178 8.50861C5.34436 8.36119 5.16013 8.25597 4.95826 8.20389L1.37951 7.28105C1.31845 7.26372 1.26471 7.22695 1.22645 7.17631C1.18818 7.12568 1.16748 7.06394 1.16748 7.00047C1.16748 6.937 1.18818 6.87526 1.22645 6.82463C1.26471 6.77399 1.31845 6.73722 1.37951 6.71989L4.95826 5.79647C5.16006 5.74444 5.34424 5.63931 5.49166 5.49199C5.63907 5.34468 5.74434 5.16057 5.79651 4.9588L6.71934 1.38005C6.7365 1.31876 6.77323 1.26475 6.82394 1.22628C6.87466 1.18782 6.93656 1.16699 7.00022 1.16699C7.06387 1.16699 7.12577 1.18782 7.17649 1.22628C7.2272 1.26475 7.26394 1.31876 7.28109 1.38005L8.20334 4.9588C8.25542 5.16068 8.36064 5.34491 8.50806 5.49233C8.65548 5.63975 8.83972 5.74498 9.04159 5.79705L12.6203 6.7193C12.6819 6.73628 12.7362 6.77298 12.7748 6.82377C12.8135 6.87455 12.8345 6.93663 12.8345 7.00047C12.8345 7.06431 12.8135 7.12639 12.7748 7.17718C12.7362 7.22797 12.6819 7.26466 12.6203 7.28164L9.04159 8.20389C8.83972 8.25597 8.65548 8.36119 8.50806 8.50861C8.36064 8.65603 8.25542 8.84026 8.20334 9.04214L7.28051 12.6209C7.26335 12.6822 7.22662 12.7362 7.1759 12.7747C7.12519 12.8131 7.06329 12.8339 6.99963 12.8339C6.93598 12.8339 6.87407 12.8131 6.82336 12.7747C6.77265 12.7362 6.73591 12.6822 6.71876 12.6209L5.79651 9.04214Z" stroke="#2E3238" stroke-linecap="round" stroke-linejoin="round"/>
<path d="M11.6665 1.75V4.08333" stroke="#2E3238" stroke-linecap="round" stroke-linejoin="round"/>
<path d="M12.8333 2.91699H10.5" stroke="#2E3238" stroke-linecap="round" stroke-linejoin="round"/>
<path d="M2.3335 9.91699V11.0837" stroke="#2E3238" stroke-linecap="round" stroke-linejoin="round"/>
<path d="M2.91667 10.5H1.75" stroke="#2E3238" stroke-linecap="round" stroke-linejoin="round"/>
</svg>
