<svg width="45" height="45" viewBox="0 0 45 45" fill="none" xmlns="http://www.w3.org/2000/svg">
<path d="M22.499 0.5C34.6289 0.500191 44.4998 10.3711 44.5 22.501C44.5 34.6309 34.6291 44.4998 22.499 44.5C10.3689 44.5 0.5 34.6311 0.5 22.501C0.500192 10.3709 10.3691 0.5 22.499 0.5ZM22.499 0.868164C10.6233 0.868164 0.865427 10.6267 0.865234 22.501C0.865234 33.0429 8.76005 42.0862 18.9775 43.8135L19.5605 43.9121V26.7197L19.0557 26.7246L15.4307 26.7617V23.624H19.502L19.5205 23.1426V23.1299C19.5208 23.1214 19.5219 23.1083 19.5225 23.0918C19.5236 23.0589 19.5245 23.0104 19.5264 22.9473C19.5301 22.8205 19.536 22.6345 19.541 22.3975C19.5511 21.9231 19.5605 21.2427 19.5605 20.418C19.5605 17.8579 20.7057 15.8285 21.793 14.7412C22.866 13.6683 24.7228 12.7162 27.2129 12.7139L28.1104 12.7402L28.0791 15.8574H27.2217C26.3851 15.8575 25.5888 16.254 25.0088 16.8223C24.4288 17.3907 24.0156 18.1795 24.0156 19.0234V23.624H29.2725L28.2188 26.7207L24.5205 26.6846L24.0146 26.6797L24.0156 27.1855L24.0557 43.5273L24.0566 44.0791L24.6064 44.0234C35.4174 42.9273 44.1348 33.5226 44.1348 22.501C44.1346 10.6256 34.304 0.868359 22.499 0.868164Z" fill="#2E3238" stroke="#2E3238"/>
</svg>
