<svg width="162" height="162" viewBox="0 0 162 162" fill="none" xmlns="http://www.w3.org/2000/svg">
<g filter="url(#filter0_d_558_1974)">
<rect width="90" height="90" rx="20" transform="matrix(0.965754 -0.259459 0.258181 0.966097 25.5195 44.8518)" fill="#F9FBFF" shape-rendering="crispEdges"/>
<g filter="url(#filter1_d_558_1974)">
<path d="M81.9893 96.3901L79.3817 86.6326C78.3555 82.7924 76.3972 81.6617 72.5585 82.693L62.8048 85.3135C58.966 86.3448 57.834 88.3056 58.8603 92.1459L61.4679 101.903C62.4941 105.744 64.4524 106.874 68.2911 105.843L78.0448 103.223C81.8836 102.191 83.0156 100.23 81.9893 96.3901Z" fill="#D7ECFF"/>
</g>
<g opacity="0.7" filter="url(#filter2_d_558_1974)">
<path d="M102.494 61.7591L99.5636 50.7939C98.6535 47.3884 96.7405 46.4269 92.9018 47.4582L83.148 50.0786C79.3093 51.1099 78.1321 52.9017 79.0422 56.3072L81.966 67.2482C82.8826 70.6778 84.7892 71.6153 88.6279 70.5839L98.3816 67.9635C102.227 66.9564 103.404 65.1646 102.494 61.7591Z" fill="#D7ECFF"/>
</g>
<g filter="url(#filter3_d_558_1974)">
<path d="M74.7293 69.2186L71.799 58.2534C70.8889 54.8479 68.9758 53.8863 65.1371 54.9176L55.3834 57.5381C51.5447 58.5694 50.3674 60.3612 51.2775 63.7667L54.2014 74.7077C55.1179 78.1373 57.0245 79.0747 60.8633 78.0434L70.617 75.423C74.4622 74.4158 75.6394 72.624 74.7293 69.2186Z" fill="url(#paint0_linear_558_1974)"/>
</g>
<g filter="url(#filter4_d_558_1974)">
<path d="M109.755 88.9304L107.148 79.1729C106.122 75.3326 104.163 74.202 100.325 75.2333L90.5709 77.8537C86.7322 78.8851 85.6001 80.8459 86.6264 84.6861L89.234 94.4437C90.2603 98.2839 92.2185 99.4146 96.0572 98.3832L105.811 95.7628C109.65 94.7315 110.782 92.7706 109.755 88.9304Z" fill="url(#paint1_linear_558_1974)"/>
</g>
</g>
<defs>
<filter id="filter0_d_558_1974" x="-4.48047" y="-4.49951" width="170.154" height="170.3" filterUnits="userSpaceOnUse" color-interpolation-filters="sRGB">
<feFlood flood-opacity="0" result="BackgroundImageFix"/>
<feColorMatrix in="SourceAlpha" type="matrix" values="0 0 0 0 0 0 0 0 0 0 0 0 0 0 0 0 0 0 127 0" result="hardAlpha"/>
<feOffset dy="4"/>
<feGaussianBlur stdDeviation="15"/>
<feComposite in2="hardAlpha" operator="out"/>
<feColorMatrix type="matrix" values="0 0 0 0 0 0 0 0 0 0 0 0 0 0 0 0 0 0 0.05 0"/>
<feBlend mode="normal" in2="BackgroundImageFix" result="effect1_dropShadow_558_1974"/>
<feBlend mode="normal" in="SourceGraphic" in2="effect1_dropShadow_558_1974" result="shape"/>
</filter>
<filter id="filter1_d_558_1974" x="53.5015" y="81.3312" width="33.8467" height="33.8737" filterUnits="userSpaceOnUse" color-interpolation-filters="sRGB">
<feFlood flood-opacity="0" result="BackgroundImageFix"/>
<feColorMatrix in="SourceAlpha" type="matrix" values="0 0 0 0 0 0 0 0 0 0 0 0 0 0 0 0 0 0 127 0" result="hardAlpha"/>
<feOffset dy="4"/>
<feGaussianBlur stdDeviation="2.5"/>
<feComposite in2="hardAlpha" operator="out"/>
<feColorMatrix type="matrix" values="0 0 0 0 0 0 0 0 0 0 0 0 0 0 0 0 0 0 0.05 0"/>
<feBlend mode="normal" in2="BackgroundImageFix" result="effect1_dropShadow_558_1974"/>
<feBlend mode="normal" in="SourceGraphic" in2="effect1_dropShadow_558_1974" result="shape"/>
</filter>
<filter id="filter2_d_558_1974" x="73.7505" y="46.0654" width="34.0352" height="33.9148" filterUnits="userSpaceOnUse" color-interpolation-filters="sRGB">
<feFlood flood-opacity="0" result="BackgroundImageFix"/>
<feColorMatrix in="SourceAlpha" type="matrix" values="0 0 0 0 0 0 0 0 0 0 0 0 0 0 0 0 0 0 127 0" result="hardAlpha"/>
<feOffset dy="4"/>
<feGaussianBlur stdDeviation="2.5"/>
<feComposite in2="hardAlpha" operator="out"/>
<feColorMatrix type="matrix" values="0 0 0 0 0 0 0 0 0 0 0 0 0 0 0 0 0 0 0.05 0"/>
<feBlend mode="normal" in2="BackgroundImageFix" result="effect1_dropShadow_558_1974"/>
<feBlend mode="normal" in="SourceGraphic" in2="effect1_dropShadow_558_1974" result="shape"/>
</filter>
<filter id="filter3_d_558_1974" x="45.9858" y="53.5249" width="34.0352" height="33.9148" filterUnits="userSpaceOnUse" color-interpolation-filters="sRGB">
<feFlood flood-opacity="0" result="BackgroundImageFix"/>
<feColorMatrix in="SourceAlpha" type="matrix" values="0 0 0 0 0 0 0 0 0 0 0 0 0 0 0 0 0 0 127 0" result="hardAlpha"/>
<feOffset dy="4"/>
<feGaussianBlur stdDeviation="2.5"/>
<feComposite in2="hardAlpha" operator="out"/>
<feColorMatrix type="matrix" values="0 0 0 0 0 0 0 0 0 0 0 0 0 0 0 0 0 0 0.05 0"/>
<feBlend mode="normal" in2="BackgroundImageFix" result="effect1_dropShadow_558_1974"/>
<feBlend mode="normal" in="SourceGraphic" in2="effect1_dropShadow_558_1974" result="shape"/>
</filter>
<filter id="filter4_d_558_1974" x="81.2676" y="73.8715" width="33.8467" height="33.8737" filterUnits="userSpaceOnUse" color-interpolation-filters="sRGB">
<feFlood flood-opacity="0" result="BackgroundImageFix"/>
<feColorMatrix in="SourceAlpha" type="matrix" values="0 0 0 0 0 0 0 0 0 0 0 0 0 0 0 0 0 0 127 0" result="hardAlpha"/>
<feOffset dy="4"/>
<feGaussianBlur stdDeviation="2.5"/>
<feComposite in2="hardAlpha" operator="out"/>
<feColorMatrix type="matrix" values="0 0 0 0 0 0 0 0 0 0 0 0 0 0 0 0 0 0 0.05 0"/>
<feBlend mode="normal" in2="BackgroundImageFix" result="effect1_dropShadow_558_1974"/>
<feBlend mode="normal" in="SourceGraphic" in2="effect1_dropShadow_558_1974" result="shape"/>
</filter>
<linearGradient id="paint0_linear_558_1974" x1="76.9771" y1="77.6235" x2="28.6724" y2="90.5325" gradientUnits="userSpaceOnUse">
<stop stop-color="#5194FE"/>
<stop offset="1" stop-color="#466AFE"/>
</linearGradient>
<linearGradient id="paint1_linear_558_1974" x1="112.172" y1="97.9673" x2="63.8674" y2="110.876" gradientUnits="userSpaceOnUse">
<stop stop-color="#5194FE"/>
<stop offset="1" stop-color="#466AFE"/>
</linearGradient>
</defs>
</svg>
