<svg width="45" height="45" viewBox="0 0 45 45" fill="none" xmlns="http://www.w3.org/2000/svg">
<path d="M22.5 0.5C34.6503 0.5 44.5 10.3497 44.5 22.5C44.5 34.6503 34.6503 44.5 22.5 44.5C10.3497 44.5 0.5 34.6503 0.5 22.5C0.5 10.3497 10.3497 0.5 22.5 0.5Z" stroke="#2E3238"/>
<path d="M18.5275 15.7391C18.5275 16.6998 17.7413 17.4783 16.7708 17.4783C15.8004 17.4783 15.0142 16.6998 15.0142 15.7391C15.0142 14.7791 15.8004 14 16.7708 14C17.7413 14 18.5275 14.7791 18.5275 15.7391ZM18.5417 18.8696H15V30H18.5417V18.8696ZM24.1956 18.8696H20.6766V30H24.1963V24.1572C24.1963 20.9085 28.4668 20.6428 28.4668 24.1572V30H32V22.9523C32 17.4706 25.6803 17.6703 24.1956 20.3687V18.8696Z" fill="#2E3238"/>
</svg>
