<?xml version="1.0" encoding="utf-8"?>
<svg xmlns="http://www.w3.org/2000/svg" fill="none" height="100%" overflow="visible" preserveAspectRatio="none" style="display: block;" viewBox="0 0 278 60" width="100%">
<g id="Frame 2072750812">
<g id="logo">
<g id="logo_2">
<g id="Apex">
<g id="Vector">
<path d="M216.986 11.9671L203.934 29.4661V29.1622L218.106 47.2371H210.428L198.96 32.6492H199.184L188.035 47.2371H180.757L194.689 29.2422V29.5461L181.461 11.9671H189.138L199.679 26.0271H199.439L209.709 11.9671H216.986Z" fill="#12184A"/>
<path clip-rule="evenodd" d="M217.333 11.7931L204.269 29.3077L218.464 47.4111H210.344L199.075 33.0777L188.121 47.4111H180.402L194.354 29.3905L181.112 11.7931H189.225L199.556 25.5724L209.62 11.7931H217.333ZM199.558 25.865L189.138 11.9671H181.461L194.573 29.392L180.757 47.2371H188.035L199.073 32.7936L210.428 47.2371H218.106L204.05 29.3104L216.986 11.9671H209.709L199.558 25.865Z" fill="var(--fill-0, #12184A)" fill-rule="evenodd"/>
</g>
<g id="Vector_2">
<path d="M155.383 29.734C155.383 31.6703 155.638 33.415 156.149 34.9682C156.659 36.5215 157.388 37.846 158.335 38.9418C159.292 40.0269 160.447 40.862 161.798 41.4472C163.16 42.0323 164.686 42.3249 166.378 42.3249C167.537 42.3249 168.607 42.1812 169.585 41.894C170.564 41.6067 171.447 41.1812 172.234 40.6174C173.032 40.0429 173.734 39.3354 174.341 38.4949C174.958 37.6439 175.479 36.6598 175.905 35.5427H182.368C181.91 37.5109 181.197 39.2769 180.229 40.8408C179.261 42.4046 178.08 43.7292 176.687 44.8143C175.304 45.8994 173.724 46.7293 171.947 47.3037C170.181 47.8782 168.271 48.1655 166.218 48.1655C163.622 48.1655 161.261 47.7187 159.133 46.825C157.016 45.9314 155.197 44.6707 153.675 43.043C152.165 41.4153 150.994 39.4577 150.165 37.1704C149.335 34.8831 148.92 32.3458 148.92 29.5585C148.92 26.7924 149.329 24.2764 150.149 22.0104C150.968 19.7337 152.127 17.7868 153.627 16.1697C155.127 14.542 156.925 13.2867 159.021 12.4037C161.128 11.51 163.457 11.0632 166.011 11.0632C168.532 11.0632 170.809 11.4994 172.841 12.3717C174.873 13.2335 176.607 14.4622 178.043 16.058C179.479 17.6538 180.586 19.5848 181.362 21.8508C182.139 24.1168 182.527 26.6541 182.527 29.4627C182.527 29.867 182.517 30.2713 182.495 30.6755C182.485 31.0692 182.458 31.5 182.416 31.9681H154.01V26.3828H179.368L175.953 31.9203C175.985 31.5585 176.006 31.1862 176.016 30.8032C176.038 30.4202 176.048 30.0372 176.048 29.6542C176.048 27.6116 175.825 25.803 175.378 24.2285C174.942 22.6434 174.298 21.3082 173.447 20.2231C172.596 19.1379 171.548 18.3134 170.303 17.7496C169.069 17.1857 167.649 16.9038 166.043 16.9038C164.394 16.9038 162.91 17.1964 161.59 17.7815C160.282 18.3666 159.165 19.2071 158.239 20.3029C157.324 21.3986 156.617 22.7285 156.117 24.2923C155.627 25.8562 155.383 27.6116 155.383 29.5585V29.734Z" fill="#12184A"/>
<path clip-rule="evenodd" d="M155.526 32.1418C155.652 33.1455 155.859 34.0876 156.149 34.9682C156.659 36.5215 157.388 37.846 158.335 38.9418C159.292 40.0269 160.447 40.862 161.798 41.4472C163.16 42.0323 164.686 42.3249 166.378 42.3249C167.537 42.3249 168.607 42.1812 169.585 41.894C170.564 41.6067 171.447 41.1812 172.234 40.6174C173.032 40.0429 173.734 39.3354 174.341 38.4949C174.958 37.6439 175.479 36.6598 175.905 35.5427H182.368C182.354 35.6008 182.34 35.6587 182.327 35.7164C181.868 37.6149 181.169 39.323 180.229 40.8408C179.261 42.4046 178.08 43.7292 176.687 44.8143C175.304 45.8994 173.724 46.7293 171.947 47.3037C170.181 47.8782 168.271 48.1655 166.218 48.1655C163.622 48.1655 161.261 47.7187 159.133 46.825C157.016 45.9314 155.197 44.6707 153.675 43.043C152.165 41.4153 150.994 39.4577 150.165 37.1704C149.335 34.8831 148.92 32.3458 148.92 29.5585C148.92 26.7924 149.329 24.2764 150.149 22.0104C150.968 19.7337 152.127 17.7868 153.627 16.1697C155.127 14.542 156.925 13.2867 159.021 12.4037C161.128 11.51 163.457 11.0632 166.011 11.0632C168.532 11.0632 170.809 11.4994 172.841 12.3717C174.873 13.2335 176.607 14.4622 178.043 16.058C179.479 17.6538 180.586 19.5848 181.362 21.8508C182.139 24.1168 182.527 26.6541 182.527 29.4627C182.527 29.867 182.517 30.2713 182.495 30.6755C182.485 31.0692 182.458 31.5 182.416 31.9681L155.506 31.9681C155.512 32.0262 155.519 32.0841 155.526 32.1418ZM175.804 26.2092C175.813 26.2668 175.821 26.3247 175.83 26.3829H155.627C155.636 26.3248 155.646 26.2669 155.656 26.2092C155.772 25.5411 155.926 24.9022 156.117 24.2923C156.617 22.7285 157.324 21.3986 158.239 20.3029C159.165 19.2071 160.282 18.3666 161.59 17.7815C162.91 17.1964 164.394 16.9038 166.043 16.9038C167.649 16.9038 169.069 17.1857 170.303 17.7496C171.548 18.3134 172.596 19.1379 173.447 20.2231C174.298 21.3082 174.942 22.6434 175.378 24.2285C175.555 24.852 175.697 25.5123 175.804 26.2092ZM175.628 26.2092C175.523 25.5286 175.384 24.8842 175.211 24.2759L175.211 24.2753L175.211 24.2746C174.779 22.7075 174.145 21.3941 173.311 20.3302C172.477 19.2669 171.451 18.46 170.232 17.9078L170.231 17.9075C169.024 17.3557 167.629 17.0775 166.043 17.0775C164.415 17.0775 162.955 17.3662 161.661 17.9401C160.377 18.5145 159.281 19.3389 158.372 20.4145C157.474 21.4905 156.777 22.7994 156.282 24.3447C156.097 24.9377 155.947 25.5592 155.832 26.2092H175.628ZM155.701 32.1418C155.826 33.1273 156.03 34.0512 156.314 34.914C156.818 36.4479 157.536 37.7513 158.466 38.8275C159.406 39.8929 160.539 40.7128 161.867 41.2878C163.204 41.8623 164.707 42.1512 166.378 42.1512C167.523 42.1512 168.576 42.0094 169.536 41.7274C170.497 41.4454 171.363 41.0281 172.133 40.4762C172.915 39.9133 173.604 39.2194 174.2 38.3934L174.2 38.393C174.807 37.5559 175.322 36.5856 175.742 35.4809L175.785 35.3691H182.586L182.537 35.582C182.075 37.5668 181.356 39.3507 180.377 40.9322C179.398 42.5128 178.204 43.853 176.793 44.9513C175.393 46.0496 173.795 46.8886 172.001 47.4689C170.216 48.0496 168.288 48.3391 166.218 48.3391C163.602 48.3391 161.217 47.8887 159.066 46.9851C156.927 46.0823 155.087 44.8076 153.548 43.1615L153.548 43.1611C152.02 41.5148 150.838 39.5367 150.001 37.2297C149.164 34.9208 148.746 32.3631 148.746 29.5585C148.746 26.7753 149.158 24.2389 149.985 21.9514C150.812 19.6551 151.983 17.6876 153.5 16.0519C155.017 14.4056 156.836 13.1361 158.954 12.2438C161.084 11.3401 163.437 10.8896 166.011 10.8896C168.552 10.8896 170.853 11.3293 172.909 12.2121C174.964 13.0834 176.719 14.3268 178.172 15.9419C179.626 17.557 180.743 19.5089 181.527 21.7945C182.31 24.0815 182.701 26.6382 182.701 29.4627C182.701 29.8693 182.69 30.2758 182.669 30.6824C182.658 31.0797 182.631 31.5136 182.588 31.9839L182.574 32.1418H155.701Z" fill="var(--fill-0, #12184A)" fill-rule="evenodd"/>
</g>
<path d="M130.225 10.8057C135.126 10.8057 139.028 12.4842 141.933 15.8411C144.837 19.198 146.289 23.8519 146.289 29.554C146.289 35.2102 144.837 39.7168 141.933 43.0737C138.983 46.4766 135.081 48.1781 130.225 48.1781C125.233 48.1781 121.421 46.2467 118.789 42.3839V60H111.983V11.6334H118.517V17.0137C121.149 12.875 125.052 10.8057 130.225 10.8057ZM121.444 38.8661C123.259 41.1193 125.755 42.246 128.932 42.246C132.108 42.246 134.627 41.0963 136.487 38.7971C138.302 36.5438 139.21 33.3708 139.21 29.2781C139.21 25.3234 138.302 22.1411 136.487 19.9798C134.672 17.8185 132.154 16.7378 128.932 16.7378C125.801 16.7378 123.305 17.8414 121.444 20.0487C119.584 22.348 118.653 25.5993 118.653 29.554C118.653 33.5088 119.584 36.6128 121.444 38.8661Z" fill="var(--fill-0, #12184A)" id="Vector_3"/>
<path clip-rule="evenodd" d="M65.7138 47.4117H73.0596L77.2973 35.9429H98.4852L102.664 47.4117H110.169L93.2141 1.31661H82.8946L65.7138 47.4117ZM87.9654 7.07153L96.1436 29.5166H79.6719L87.9654 7.07153Z" fill="var(--fill-0, #12184A)" fill-rule="evenodd" id="Union"/>
</g>
<g id="EHR">
<path d="M260.773 26.725H270.472C272.709 26.725 274.388 27.2085 275.506 28.1756C276.625 29.1426 277.184 30.4889 277.184 32.2144C277.184 33.1815 277.042 33.9874 276.758 34.6321C276.473 35.2578 276.142 35.7698 275.762 36.168C275.383 36.5472 275.004 36.8222 274.625 36.9928C274.264 37.1635 273.999 37.2772 273.828 37.3341V37.391C274.132 37.4289 274.454 37.5237 274.795 37.6754C275.156 37.8271 275.487 38.0736 275.791 38.4149C276.094 38.7373 276.341 39.1639 276.53 39.6949C276.739 40.2258 276.843 40.8895 276.843 41.6858C276.843 42.8804 276.928 43.9707 277.099 44.9568C277.289 45.9238 277.573 46.6159 277.952 47.0331H274.141C273.876 46.5969 273.714 46.1134 273.658 45.5825C273.62 45.0516 273.601 44.5396 273.601 44.0466C273.601 43.1175 273.544 42.3211 273.43 41.6574C273.316 40.9748 273.108 40.4154 272.804 39.9793C272.501 39.5242 272.084 39.1924 271.553 38.9838C271.041 38.7752 270.377 38.6709 269.562 38.6709H264.328V47.0331H260.773V26.725ZM264.328 35.9689H270.159C271.297 35.9689 272.16 35.7034 272.747 35.1725C273.335 34.6226 273.629 33.8072 273.629 32.7264C273.629 32.0817 273.534 31.5603 273.345 31.1621C273.155 30.7449 272.89 30.4226 272.548 30.195C272.226 29.9675 271.847 29.8158 271.411 29.7399C270.993 29.6641 270.557 29.6262 270.102 29.6262H264.328V35.9689Z" fill="var(--fill-0, #12184A)" id="Vector_4"/>
<path d="M241.015 26.725H244.57V34.8027H253.814V26.725H257.369V47.0331H253.814V37.8745H244.57V47.0331H241.015V26.725Z" fill="var(--fill-0, #12184A)" id="Vector_5"/>
<path d="M224.038 26.725H238.657V29.7968H227.593V35.1156H237.833V38.0167H227.593V43.9612H238.856V47.033H224.038V26.725Z" fill="var(--fill-0, #12184A)" id="Vector_6"/>
</g>
</g>
<g id="Union_2">
<path d="M20.5714 0.7349C19.8365 1.4698 19.8365 2.6526 19.8365 5.01821V5.96367C19.8365 8.32928 19.8365 9.51209 19.1016 10.247C18.3667 10.9819 17.1839 10.9819 14.8183 10.9819H13.9274C11.5617 10.9819 10.3789 10.9819 9.64404 11.7168C8.90914 12.4517 8.90914 13.6345 8.90914 16.0001V22.3092H4.45457C2.63193 22.3092 1.7206 22.3092 1.07384 22.7603C0.831144 22.9295 0.620295 23.1404 0.45104 23.3831C0 24.0298 0 24.9412 0 26.7638C0 28.5864 0 29.4978 0.45104 30.1445C0.620295 30.3872 0.831144 30.5981 1.07384 30.7673C1.7206 31.2184 2.63193 31.2184 4.45457 31.2184C6.27722 31.2184 7.18854 31.2184 7.8353 30.7673C8.078 30.5981 8.28885 30.3872 8.4581 30.1445C8.90914 29.4978 8.90914 28.5864 8.90914 26.7638V22.3092H15.2183C17.5839 22.3092 18.7667 22.3092 19.5016 21.5743C20.2365 20.8394 20.2365 19.6566 20.2365 17.291V16.3637C20.2365 13.9981 20.2365 12.8153 20.9714 12.0804C21.7063 11.3455 22.8891 11.3455 25.2547 11.3455H25.7638C28.1294 11.3455 29.3122 11.3455 30.0471 12.0804C30.782 12.8153 30.782 13.9981 30.782 16.3637V17.2183C30.782 19.5839 30.782 20.7667 31.5169 21.5016C32.2518 22.2365 33.4346 22.2365 35.8002 22.2365H42.1093V26.6911C42.1093 28.5137 42.1093 29.425 42.5604 30.0718C42.7296 30.3145 42.9405 30.5254 43.1832 30.6946C43.8299 31.1456 44.7413 31.1456 46.5639 31.1456C48.3866 31.1456 49.2979 31.1456 49.9446 30.6946C50.1873 30.5254 50.3982 30.3145 50.5674 30.0718C51.0185 29.425 51.0185 28.5137 51.0185 26.6911C51.0185 24.8684 51.0185 23.9571 50.5674 23.3103C50.3982 23.0676 50.1873 22.8568 49.9446 22.6875C49.2979 22.2365 48.3866 22.2365 46.5639 22.2365H42.1093V15.9274C42.1093 13.5618 42.1093 12.379 41.3744 11.6441C40.6395 10.9092 39.4567 10.9092 37.0911 10.9092H36.2002C33.8346 10.9092 32.6518 10.9092 31.9169 10.1743C31.182 9.43936 31.182 8.25655 31.182 5.89095V5.01821C31.182 2.6526 31.182 1.4698 30.4471 0.7349C29.7122 0 28.5294 0 26.1638 0H24.8547C22.4891 0 21.3063 0 20.5714 0.7349Z" fill="url(#paint0_linear_0_30300)"/>
<path d="M12.984 33.2205C12.4728 33.7318 12.4728 34.5546 12.4728 36.2002V36.982C12.4728 38.6277 12.4728 39.4505 12.984 39.9617C13.4953 40.473 14.3181 40.473 15.9637 40.473H16.7456C18.3912 40.473 19.214 40.473 19.7252 39.9617C20.2365 39.4505 20.2365 38.6277 20.2365 36.982V36.2002C20.2365 34.5546 20.2365 33.7318 19.7252 33.2205C19.214 32.7093 18.3912 32.7093 16.7456 32.7093H15.9637C14.3181 32.7093 13.4953 32.7093 12.984 33.2205Z" fill="url(#paint1_linear_0_30300)"/>
<path d="M31.2932 33.2205C30.782 33.7318 30.782 34.5546 30.782 36.2002V36.982C30.782 38.6277 30.782 39.4505 31.2932 39.9617C31.8045 40.473 32.6273 40.473 34.2729 40.473H35.0548C36.7004 40.473 37.5232 40.473 38.0345 39.9617C38.5457 39.4505 38.5457 38.6277 38.5457 36.982V36.2002C38.5457 34.5546 38.5457 33.7318 38.0345 33.2205C37.5232 32.7093 36.7004 32.7093 35.0548 32.7093H34.2729C32.6273 32.7093 31.8045 32.7093 31.2932 33.2205Z" fill="url(#paint2_linear_0_30300)"/>
<path d="M22.1638 45.4548C22.1638 43.9502 22.1638 43.1979 22.5969 42.7039C22.6472 42.6467 22.7011 42.5927 22.7584 42.5425C23.2523 42.1093 24.0046 42.1093 25.5092 42.1093C27.0139 42.1093 27.7662 42.1093 28.2601 42.5425C28.3174 42.5927 28.3713 42.6467 28.4216 42.7039C28.8547 43.1979 28.8547 43.9502 28.8547 45.4548C28.8547 46.9595 28.8547 47.7118 28.4216 48.2057C28.3713 48.263 28.3174 48.3169 28.2601 48.3671C27.7662 48.8003 27.0139 48.8003 25.5092 48.8003C24.0046 48.8003 23.2523 48.8003 22.7584 48.3671C22.7011 48.3169 22.6472 48.263 22.5969 48.2057C22.1638 47.7118 22.1638 46.9595 22.1638 45.4548Z" fill="url(#paint3_linear_0_30300)"/>
</g>
</g>
</g>
<defs>
<linearGradient gradientUnits="userSpaceOnUse" id="paint0_linear_0_30300" x1="45.0745" x2="28.2024" y1="9.32453" y2="49.9862">
<stop offset="0.297432" stop-color="#5660FF"/>
<stop offset="1" stop-color="#5660FF" stop-opacity="0.17"/>
</linearGradient>
<linearGradient gradientUnits="userSpaceOnUse" id="paint1_linear_0_30300" x1="45.0745" x2="28.2024" y1="9.32453" y2="49.9862">
<stop offset="0.297432" stop-color="#5660FF"/>
<stop offset="1" stop-color="#5660FF" stop-opacity="0.17"/>
</linearGradient>
<linearGradient gradientUnits="userSpaceOnUse" id="paint2_linear_0_30300" x1="45.0745" x2="28.2024" y1="9.32453" y2="49.9862">
<stop offset="0.297432" stop-color="#5660FF"/>
<stop offset="1" stop-color="#5660FF" stop-opacity="0.17"/>
</linearGradient>
<linearGradient gradientUnits="userSpaceOnUse" id="paint3_linear_0_30300" x1="45.0745" x2="28.2024" y1="9.32453" y2="49.9862">
<stop offset="0.297432" stop-color="#5660FF"/>
<stop offset="1" stop-color="#5660FF" stop-opacity="0.17"/>
</linearGradient>
</defs>
</svg>