<?xml version="1.0" encoding="utf-8"?>
<svg xmlns="http://www.w3.org/2000/svg" fill="none" height="100%" overflow="visible" preserveAspectRatio="none" style="display: block;" viewBox="0 0 303 333" width="100%">
<g clip-path="url(#clip0_0_15205)" id="Frame 2072750260">
<path d="M289.753 173.516C290.599 149.307 285.087 125.303 273.773 103.916C262.459 82.5295 245.741 64.5143 225.299 51.681C204.857 38.8478 181.412 31.6487 157.32 30.8074C133.227 29.966 109.337 35.5121 88.0496 46.8882L152.504 168.723L289.753 173.516Z" fill="var(--fill-0, #C0D1FC)" id="Ellipse 8450" opacity="0.1"/>
<path d="M12.8161 159.168C11.9707 183.378 17.482 207.382 28.796 228.769C40.1101 250.155 56.8282 268.17 77.2701 281.004C97.712 293.837 121.157 301.036 145.25 301.877C169.342 302.719 193.232 297.172 214.52 285.796L150.066 163.961L12.8161 159.168Z" fill="var(--fill-0, #C0D1FC)" id="Ellipse 8452" opacity="0.1"/>
<path d="M186.615 35.7169C163.216 29.4473 138.587 29.4175 115.204 35.6306C91.8202 41.8438 70.5059 54.0809 53.4031 71.112C36.3003 88.1431 24.0117 109.368 17.7724 132.654C11.533 155.939 11.5628 180.465 17.8586 203.766L151.07 168.371L186.615 35.7169Z" fill="var(--fill-0, #C0D1FC)" id="Ellipse 8451" opacity="0.2"/>
<path d="M115.955 296.963C139.353 303.233 163.982 303.263 187.366 297.049C210.749 290.836 232.064 278.599 249.166 261.568C266.269 244.537 278.558 223.312 284.797 200.026C291.036 176.741 291.007 152.215 284.711 128.914L151.499 164.309L115.955 296.963Z" fill="var(--fill-0, #C0D1FC)" id="Ellipse 8453" opacity="0.2"/>
</g>
<defs>
<clipPath id="clip0_0_15205">
<rect fill="white" height="332.68" width="302.569"/>
</clipPath>
</defs>
</svg>