<?xml version="1.0" encoding="utf-8"?>
<svg xmlns="http://www.w3.org/2000/svg" fill="none" height="100%" overflow="visible" preserveAspectRatio="none" style="display: block;" viewBox="0 0 409 409" width="100%">
<g id="Subtract">
<path d="M194.989 182.934C196.925 184.87 197.019 187.978 195.204 190.028V190.028C193.227 192.26 189.776 192.365 187.667 190.256L73.5533 76.1419C71.5314 74.12 71.5314 70.842 73.5532 68.8202V68.8202C75.5751 66.7983 78.8531 66.7983 80.8749 68.8202L194.989 182.934Z" fill="var(--fill-0, white)" fill-opacity="0.6"/>
<path d="M209.677 181.203C209.677 184.062 211.995 186.38 214.854 186.38V186.38C217.714 186.38 220.032 184.062 220.032 181.203V5.17722C220.032 2.31792 217.714 0 214.854 0V0C211.995 0 209.677 2.31791 209.677 5.17721V181.203Z" fill="var(--fill-0, white)" fill-opacity="0.6"/>
<path d="M234.357 182.579C232.281 184.655 232.344 188.039 234.496 190.035V190.035C236.537 191.929 239.71 191.87 241.678 189.901L355.438 76.1413C357.46 74.1195 357.46 70.8414 355.438 68.8196V68.8196C353.416 66.7978 350.138 66.7978 348.116 68.8196L234.357 182.579Z" fill="var(--fill-0, white)" fill-opacity="0.6"/>
<path d="M243.329 204.5C240.47 204.5 238.152 206.818 238.152 209.677V209.677C238.152 212.536 240.47 214.854 243.329 214.854L403.823 214.854C406.682 214.854 409 212.537 409 209.677V209.677C409 206.818 406.682 204.5 403.823 204.5L243.329 204.5Z" fill="var(--fill-0, white)" fill-opacity="0.6"/>
<path d="M241.597 229.543C239.662 227.607 236.553 227.513 234.504 229.328V229.328C232.271 231.305 232.167 234.755 234.276 236.864L355.438 358.027C357.46 360.049 360.738 360.049 362.76 358.027V358.027C364.782 356.005 364.782 352.727 362.76 350.705L241.597 229.543Z" fill="var(--fill-0, white)" fill-opacity="0.6"/>
<path d="M220.032 238.152C220.032 235.293 217.714 232.975 214.854 232.975V232.975C211.995 232.975 209.677 235.293 209.677 238.152V403.823C209.677 406.682 211.995 409 214.854 409V409C217.714 409 220.032 406.682 220.032 403.823V238.152Z" fill="var(--fill-0, white)" fill-opacity="0.6"/>
<path d="M195.078 236.501C197.047 234.533 197.106 231.36 195.213 229.319V229.319C193.216 227.167 189.832 227.104 187.757 229.179L66.2316 350.705C64.2097 352.726 64.2097 356.004 66.2316 358.026V358.026C68.2534 360.048 71.5314 360.048 73.5532 358.026L195.078 236.501Z" fill="var(--fill-0, white)" fill-opacity="0.6"/>
<path d="M186.38 214.854C189.239 214.854 191.557 212.536 191.557 209.677V209.677C191.557 206.818 189.239 204.5 186.38 204.5L5.17722 204.5C2.31792 204.5 0 206.818 0 209.677V209.677C0 212.536 2.31792 214.854 5.17721 214.854L186.38 214.854Z" fill="var(--fill-0, white)" fill-opacity="0.6"/>
</g>
</svg>