<svg width="28" height="28" viewBox="0 0 28 28" fill="none" xmlns="http://www.w3.org/2000/svg">
<path d="M11.593 18.0833C11.4889 17.6796 11.2784 17.3111 10.9836 17.0163C10.6887 16.7214 10.3203 16.511 9.91651 16.4068L2.75902 14.5612C2.6369 14.5265 2.52943 14.453 2.4529 14.3517C2.37637 14.2504 2.33496 14.1269 2.33496 14C2.33496 13.8731 2.37637 13.7496 2.4529 13.6483C2.52943 13.547 2.6369 13.4735 2.75902 13.4388L9.91651 11.592C10.3201 11.4879 10.6885 11.2777 10.9833 10.983C11.2781 10.6884 11.4887 10.3202 11.593 9.91666L13.4387 2.75916C13.473 2.63657 13.5465 2.52856 13.6479 2.45162C13.7493 2.37468 13.8731 2.33304 14.0004 2.33304C14.1277 2.33304 14.2515 2.37468 14.353 2.45162C14.4544 2.52856 14.5279 2.63657 14.5622 2.75916L16.4067 9.91666C16.5108 10.3204 16.7213 10.6889 17.0161 10.9837C17.311 11.2786 17.6794 11.489 18.0832 11.5932L25.2407 13.4377C25.3638 13.4716 25.4723 13.545 25.5497 13.6466C25.627 13.7482 25.6689 13.8723 25.6689 14C25.6689 14.1277 25.627 14.2518 25.5497 14.3534C25.4723 14.455 25.3638 14.5284 25.2407 14.5623L18.0832 16.4068C17.6794 16.511 17.311 16.7214 17.0161 17.0163C16.7213 17.3111 16.5108 17.6796 16.4067 18.0833L14.561 25.2408C14.5267 25.3634 14.4532 25.4714 14.3518 25.5484C14.2504 25.6253 14.1266 25.667 13.9993 25.667C13.872 25.667 13.7481 25.6253 13.6467 25.5484C13.5453 25.4714 13.4718 25.3634 13.4375 25.2408L11.593 18.0833Z" stroke="#30343A" stroke-linecap="round" stroke-linejoin="round"/>
<path d="M23.333 3.5V8.16667" stroke="#30343A" stroke-linecap="round" stroke-linejoin="round"/>
<path d="M25.6667 5.83334H21" stroke="#30343A" stroke-linecap="round" stroke-linejoin="round"/>
<path d="M4.66699 19.8333V22.1666" stroke="#30343A" stroke-linecap="round" stroke-linejoin="round"/>
<path d="M5.83333 21H3.5" stroke="#30343A" stroke-linecap="round" stroke-linejoin="round"/>
</svg>
