<svg width="28" height="28" viewBox="0 0 28 28" fill="none" xmlns="http://www.w3.org/2000/svg">
<path d="M11.667 2.33325H16.3337" stroke="#2F3339" stroke-width="2" stroke-linecap="round" stroke-linejoin="round"/>
<path d="M14 16.3333V11.6667" stroke="#2F3339" stroke-width="2" stroke-linecap="round" stroke-linejoin="round"/>
<path d="M4.66699 15.1667C4.95267 12.8987 6.06076 10.8144 7.78111 9.30907C9.50147 7.80376 11.7144 6.98215 14.0003 7.00007C15.51 7.00168 16.9968 7.36949 18.3332 8.07196C19.6695 8.77443 20.8155 9.79059 21.6728 11.0333C22.5302 12.2759 23.0732 13.708 23.2555 15.2067C23.4377 16.7054 23.2537 18.2259 22.7192 19.6379C22.1847 21.0498 21.3156 22.311 20.1866 23.3133C19.0576 24.3155 17.7022 25.029 16.2369 25.3923C14.7716 25.7557 13.2399 25.7582 11.7734 25.3996C10.3069 25.041 8.94928 24.332 7.81699 23.3334L4.66699 20.5334" stroke="#2F3339" stroke-width="2" stroke-linecap="round" stroke-linejoin="round"/>
<path d="M10.5003 19.8333H4.66699V25.6666" stroke="#2F3339" stroke-width="2" stroke-linecap="round" stroke-linejoin="round"/>
</svg>
