<?xml version="1.0" encoding="utf-8"?>
<svg xmlns="http://www.w3.org/2000/svg" fill="none" height="100%" overflow="visible" preserveAspectRatio="none" style="display: block;" viewBox="0 0 28 28" width="100%">
<g id="carbon:ibm-cloud-security-compliance-center">
<path d="M24.3946 15.5V19.625C24.3946 20.75 23.7196 21.725 22.6696 22.25L21.3946 22.85L20.1196 22.25C19.0696 21.8 18.3946 20.75 18.3946 19.625V15.5H24.3946ZM25.8946 14H16.8946V19.625C16.8946 21.275 17.8696 22.85 19.4446 23.6L21.3946 24.5L23.3446 23.6C24.9196 22.85 25.8946 21.35 25.8946 19.625V14Z" fill="var(--fill-0, #2E3238)" id="Vector"/>
<path d="M13.8948 20.75H7.51984C4.44484 20.75 1.89484 18.2 1.89484 15.125C1.89484 12.35 3.91984 10.1 6.54484 9.575C7.21984 6.05 10.2948 3.5 13.8948 3.5C18.0198 3.5 21.3948 6.875 21.3948 11H19.8948C19.8948 7.7 17.1948 5 13.8948 5C10.8198 5 8.26984 7.325 7.89484 10.325V11H7.21984C5.04484 11.15 3.39484 12.95 3.39484 15.125C3.39484 17.375 5.26984 19.25 7.51984 19.25H13.8948V20.75Z" fill="var(--fill-0, #2E3238)" id="Vector_2"/>
</g>
</svg>